<svg width="107" height="38" viewBox="0 0 107 38" fill="none" xmlns="http://www.w3.org/2000/svg">
<path d="M1.64941 36V31.0576H4.52734V31.6592H2.34326V33.2075H4.11377V33.8091H2.34326V35.3984H4.64697V36H1.64941ZM5.44992 34.2295C5.44992 33.6712 5.59917 33.2223 5.89768 32.8828C6.19618 32.5433 6.58127 32.3735 7.05295 32.3735C7.28309 32.3735 7.49615 32.4248 7.69211 32.5273C7.89035 32.6276 8.04416 32.77 8.15354 32.9546H8.16721C8.15809 32.884 8.15354 32.8042 8.15354 32.7153V31.0576H8.82346V36H8.18088V35.6445C8.18088 35.6035 8.18202 35.5636 8.1843 35.5249C8.18885 35.4839 8.19341 35.4531 8.19797 35.4326L8.20139 35.4053H8.18772C8.08062 35.6081 7.92453 35.7721 7.71945 35.8975C7.51665 36.0228 7.28081 36.0854 7.01193 36.0854C6.53798 36.0854 6.15858 35.9146 5.87375 35.5728C5.5912 35.231 5.44992 34.7832 5.44992 34.2295ZM6.14377 34.2295C6.14377 34.61 6.23605 34.9165 6.42063 35.1489C6.60747 35.3813 6.84901 35.4976 7.14523 35.4976C7.28195 35.4976 7.40956 35.4725 7.52805 35.4224C7.64654 35.3722 7.75363 35.2982 7.84934 35.2002C7.94732 35.0999 8.02479 34.9666 8.08176 34.8003C8.13872 34.6317 8.16721 34.4391 8.16721 34.2227C8.16721 34.0609 8.14556 33.9059 8.10227 33.7578C8.06125 33.6097 7.99973 33.4764 7.9177 33.3579C7.83794 33.2394 7.73199 33.1449 7.59982 33.0742C7.46994 33.0036 7.32297 32.9683 7.15891 32.9683C6.86952 32.9683 6.62798 33.0811 6.4343 33.3066C6.24061 33.5322 6.14377 33.8398 6.14377 34.2295ZM10.1083 34.7251V32.459H10.7885V34.5713C10.7885 34.7057 10.7976 34.8219 10.8159 34.9199C10.8341 35.0156 10.866 35.1068 10.9116 35.1934C10.9571 35.2777 11.0255 35.3426 11.1166 35.3882C11.2078 35.4315 11.3206 35.4531 11.455 35.4531C11.6897 35.4531 11.8959 35.3905 12.0737 35.2651C12.2514 35.1375 12.3847 34.9735 12.4736 34.7729C12.5624 34.5724 12.6069 34.3537 12.6069 34.1167V32.459H13.2802V36H12.624V35.5112C12.624 35.4702 12.6262 35.4281 12.6308 35.3848C12.6354 35.3415 12.6399 35.3084 12.6445 35.2856L12.6513 35.2515H12.6376C12.5966 35.3449 12.5374 35.4383 12.4599 35.5317C12.3847 35.6229 12.2924 35.7118 12.183 35.7983C12.076 35.8826 11.9461 35.951 11.7934 36.0034C11.643 36.0581 11.4858 36.0854 11.3217 36.0854C10.9184 36.0854 10.6153 35.9749 10.4125 35.7539C10.2097 35.5306 10.1083 35.1877 10.1083 34.7251ZM14.3771 34.2295C14.3771 33.7008 14.5548 33.2599 14.9103 32.9067C15.2681 32.5513 15.7226 32.3735 16.2741 32.3735C16.5225 32.3735 16.7663 32.418 17.0055 32.5068C17.2448 32.5934 17.4442 32.7222 17.6037 32.8931L17.2824 33.3682C17.1593 33.2451 17.0101 33.1471 16.8346 33.0742C16.6615 32.999 16.4837 32.9614 16.3014 32.9614C15.946 32.9614 15.652 33.0811 15.4196 33.3203C15.1872 33.5596 15.071 33.8604 15.071 34.2227C15.071 34.5872 15.1883 34.8914 15.423 35.1353C15.6577 35.3768 15.9574 35.4976 16.3219 35.4976C16.5179 35.4976 16.715 35.4543 16.9132 35.3677C17.1115 35.2788 17.279 35.1626 17.4157 35.019L17.6891 35.5181C17.5273 35.6912 17.3188 35.8291 17.0636 35.9316C16.8107 36.0342 16.5475 36.0854 16.2741 36.0854C15.7181 36.0854 15.2624 35.91 14.9069 35.5591C14.5537 35.2082 14.3771 34.765 14.3771 34.2295ZM18.41 35.0327C18.41 34.88 18.4362 34.741 18.4887 34.6157C18.5433 34.4881 18.6128 34.3833 18.6971 34.3013C18.7837 34.217 18.8886 34.1429 19.0116 34.0791C19.1346 34.0153 19.2577 33.9663 19.3807 33.9321C19.5038 33.8957 19.6382 33.8672 19.7841 33.8467C19.9299 33.8262 20.0586 33.8125 20.1703 33.8057C20.2842 33.7988 20.4016 33.7954 20.5223 33.7954H20.7035V33.7236C20.7035 33.2064 20.4449 32.9478 19.9276 32.9478C19.5881 32.9478 19.2566 33.0617 18.933 33.2896L18.6596 32.7939C18.8054 32.6732 19.0013 32.5729 19.2474 32.4932C19.4935 32.4134 19.7385 32.3735 19.9823 32.3735C20.4289 32.3735 20.7741 32.4932 21.018 32.7324C21.2618 32.9717 21.3837 33.3146 21.3837 33.7612V36H20.7479V35.6445C20.7479 35.5967 20.7491 35.55 20.7513 35.5044C20.7559 35.4565 20.7593 35.4212 20.7616 35.3984L20.7684 35.3643H20.7548C20.6499 35.5762 20.4939 35.7493 20.2865 35.8838C20.0791 36.0182 19.8479 36.0854 19.5927 36.0854C19.2691 36.0854 18.9911 35.9897 18.7587 35.7983C18.5263 35.6069 18.41 35.3517 18.41 35.0327ZM19.0868 34.978C19.0868 35.1307 19.146 35.264 19.2645 35.3779C19.383 35.4896 19.5459 35.5454 19.7533 35.5454C19.9424 35.5454 20.111 35.4873 20.2592 35.3711C20.4096 35.2549 20.5212 35.1125 20.5941 34.9438C20.667 34.7729 20.7035 34.5975 20.7035 34.4175V34.2842H20.5292C19.5676 34.2842 19.0868 34.5155 19.0868 34.978ZM22.3575 33.0469V32.4932H22.836V31.4849H23.4991V32.4932H24.3536V33.0469H23.4991V34.6294C23.4991 34.7638 23.5173 34.8823 23.5538 34.9849C23.5903 35.0851 23.6347 35.1626 23.6871 35.2173C23.7418 35.272 23.8056 35.3164 23.8785 35.3506C23.9514 35.3825 24.0164 35.403 24.0733 35.4121C24.1326 35.4212 24.193 35.4258 24.2545 35.4258C24.3183 35.4258 24.373 35.4212 24.4186 35.4121V36.0137C24.3092 36.0273 24.2294 36.0342 24.1793 36.0342C24.0699 36.0342 23.964 36.0262 23.8614 36.0103C23.7589 35.9966 23.6415 35.9624 23.5094 35.9077C23.3772 35.8507 23.2633 35.7767 23.1676 35.6855C23.0719 35.5944 22.9898 35.4645 22.9215 35.2959C22.8554 35.1273 22.8224 34.9302 22.8224 34.7046V33.0469H22.3575ZM25.3821 31.7446V31.0576H26.0794V31.7446H25.3821ZM25.3958 36V32.459H26.0726V36H25.3958ZM27.1661 34.2227C27.1661 33.874 27.2515 33.5573 27.4224 33.2725C27.5933 32.9876 27.8234 32.7666 28.1128 32.6094C28.4045 32.4521 28.7235 32.3735 29.0699 32.3735C29.3319 32.3735 29.5791 32.4202 29.8116 32.5137C30.0463 32.6071 30.2491 32.7347 30.42 32.8965C30.5931 33.0583 30.7299 33.2542 30.8301 33.4844C30.9304 33.7145 30.9805 33.9606 30.9805 34.2227C30.9805 34.5736 30.8951 34.8926 30.7242 35.1797C30.5533 35.4645 30.322 35.6867 30.0303 35.8462C29.7409 36.0057 29.4231 36.0854 29.0767 36.0854C28.7281 36.0854 28.4079 36.0057 28.1162 35.8462C27.8246 35.6867 27.5933 35.4645 27.4224 35.1797C27.2515 34.8926 27.1661 34.5736 27.1661 34.2227ZM27.8599 34.2227C27.8599 34.5895 27.9773 34.8937 28.212 35.1353C28.4467 35.3768 28.7349 35.4976 29.0767 35.4976C29.4139 35.4976 29.701 35.3768 29.938 35.1353C30.175 34.8937 30.2935 34.5895 30.2935 34.2227C30.2935 33.8604 30.175 33.5596 29.938 33.3203C29.701 33.0811 29.4139 32.9614 29.0767 32.9614C28.7349 32.9614 28.4467 33.0811 28.212 33.3203C27.9773 33.5596 27.8599 33.8604 27.8599 34.2227ZM32.0808 36V32.459H32.7371V32.9409L32.7166 33.2075H32.7302C32.7667 33.1209 32.8202 33.0332 32.8909 32.9443C32.9615 32.8555 33.0504 32.7666 33.1575 32.6777C33.2646 32.5889 33.3979 32.516 33.5574 32.459C33.7192 32.402 33.8912 32.3735 34.0735 32.3735C34.4882 32.3735 34.7935 32.4863 34.9895 32.7119C35.1878 32.9352 35.2869 33.2747 35.2869 33.7305V36H34.6067V33.8877C34.6067 33.751 34.5976 33.6336 34.5794 33.5356C34.5634 33.4377 34.5326 33.3454 34.4871 33.2588C34.4415 33.1722 34.3731 33.1073 34.282 33.064C34.1908 33.0184 34.0769 32.9956 33.9402 32.9956C33.5961 32.9956 33.3124 33.1209 33.0891 33.3716C32.8681 33.62 32.7576 33.9287 32.7576 34.2979V36H32.0808ZM38.3352 33.0469V32.4932H38.7761V32.3394C38.7761 32.1183 38.8091 31.9246 38.8752 31.7583C38.9413 31.5897 39.021 31.4609 39.1145 31.3721C39.2102 31.2809 39.3229 31.208 39.4528 31.1533C39.5827 31.0964 39.6978 31.061 39.798 31.0474C39.9006 31.0314 40.0054 31.0234 40.1125 31.0234C40.1945 31.0234 40.2811 31.0303 40.3723 31.0439V31.6318C40.3358 31.6227 40.2766 31.6182 40.1945 31.6182C40.1307 31.6182 40.0703 31.6227 40.0134 31.6318C39.9564 31.6387 39.8915 31.658 39.8186 31.6899C39.7479 31.7196 39.6864 31.7594 39.634 31.8096C39.5839 31.8597 39.5406 31.9315 39.5041 32.0249C39.4699 32.116 39.4528 32.2231 39.4528 32.3462V32.4932H40.2868V33.0469H39.4528V36H38.7761V33.0469H38.3352ZM40.9257 34.2227C40.9257 33.874 41.0112 33.5573 41.1821 33.2725C41.353 32.9876 41.5831 32.7666 41.8725 32.6094C42.1641 32.4521 42.4832 32.3735 42.8295 32.3735C43.0916 32.3735 43.3388 32.4202 43.5712 32.5137C43.8059 32.6071 44.0087 32.7347 44.1796 32.8965C44.3528 33.0583 44.4895 33.2542 44.5898 33.4844C44.69 33.7145 44.7402 33.9606 44.7402 34.2227C44.7402 34.5736 44.6547 34.8926 44.4838 35.1797C44.3129 35.4645 44.0816 35.6867 43.79 35.8462C43.5006 36.0057 43.1827 36.0854 42.8363 36.0854C42.4877 36.0854 42.1676 36.0057 41.8759 35.8462C41.5842 35.6867 41.353 35.4645 41.1821 35.1797C41.0112 34.8926 40.9257 34.5736 40.9257 34.2227ZM41.6196 34.2227C41.6196 34.5895 41.7369 34.8937 41.9716 35.1353C42.2063 35.3768 42.4946 35.4976 42.8363 35.4976C43.1736 35.4976 43.4607 35.3768 43.6977 35.1353C43.9347 34.8937 44.0531 34.5895 44.0531 34.2227C44.0531 33.8604 43.9347 33.5596 43.6977 33.3203C43.4607 33.0811 43.1736 32.9614 42.8363 32.9614C42.4946 32.9614 42.2063 33.0811 41.9716 33.3203C41.7369 33.5596 41.6196 33.8604 41.6196 34.2227ZM45.8405 36V32.459H46.4967V33.0947C46.4967 33.138 46.4944 33.1813 46.4899 33.2246C46.4876 33.2679 46.4853 33.2998 46.483 33.3203L46.4762 33.3545H46.4899C46.5788 33.0833 46.7234 32.8589 46.924 32.6812C47.1245 32.5034 47.3558 32.4146 47.6178 32.4146C47.6474 32.4146 47.7078 32.4202 47.799 32.4316V33.1016C47.7625 33.0924 47.6976 33.0879 47.6041 33.0879C47.4218 33.0879 47.2589 33.13 47.1154 33.2144C46.9718 33.2987 46.8579 33.4115 46.7736 33.5527C46.6893 33.694 46.6255 33.8478 46.5822 34.0142C46.5389 34.1805 46.5172 34.3525 46.5172 34.5303V36H45.8405ZM50.7481 36V31.0576H53.6261V31.6592H51.442V33.2075H53.2125V33.8091H51.442V35.3984H53.7457V36H50.7481ZM54.3196 32.459H55.0408L55.9021 34.8516L56.0286 35.3335H56.0423C56.081 35.1421 56.1209 34.9814 56.1619 34.8516L57.0198 32.459H57.7342L56.4251 36H55.6492L54.3196 32.459ZM58.356 34.2295C58.356 33.9538 58.4015 33.6997 58.4927 33.4673C58.5838 33.2326 58.708 33.0366 58.8653 32.8794C59.0248 32.7199 59.2127 32.5957 59.4292 32.5068C59.648 32.418 59.8827 32.3735 60.1333 32.3735C60.4569 32.3735 60.736 32.4499 60.9707 32.6025C61.2077 32.7529 61.3832 32.9523 61.4971 33.2007C61.611 33.4491 61.668 33.7271 61.668 34.0347C61.668 34.0916 61.6589 34.1862 61.6406 34.3184H59.0635C59.0794 34.6852 59.2025 34.9735 59.4326 35.1831C59.6651 35.3927 59.9476 35.4976 60.2803 35.4976C60.4671 35.4976 60.6517 35.4611 60.834 35.3882C61.0186 35.313 61.1815 35.2116 61.3228 35.084L61.6099 35.5796C61.4413 35.7345 61.2316 35.8576 60.981 35.9487C60.7326 36.0399 60.4854 36.0854 60.2393 36.0854C59.8747 36.0854 59.5477 36.0046 59.2583 35.8428C58.9712 35.6787 58.749 35.4554 58.5918 35.1729C58.4346 34.8903 58.356 34.5758 58.356 34.2295ZM59.084 33.8296H60.981C60.9719 33.5356 60.8864 33.3078 60.7246 33.146C60.5628 32.9819 60.3612 32.8999 60.1196 32.8999C59.853 32.8999 59.6252 32.9831 59.4361 33.1494C59.2492 33.3135 59.1319 33.5402 59.084 33.8296ZM62.7649 36V32.459H63.4211V33.0947C63.4211 33.138 63.4189 33.1813 63.4143 33.2246C63.412 33.2679 63.4097 33.2998 63.4075 33.3203L63.4006 33.3545H63.4143C63.5032 33.0833 63.6479 32.8589 63.8484 32.6812C64.0489 32.5034 64.2802 32.4146 64.5422 32.4146C64.5718 32.4146 64.6322 32.4202 64.7234 32.4316V33.1016C64.6869 33.0924 64.622 33.0879 64.5286 33.0879C64.3463 33.0879 64.1833 33.13 64.0398 33.2144C63.8962 33.2987 63.7823 33.4115 63.698 33.5527C63.6137 33.694 63.5499 33.8478 63.5066 34.0142C63.4633 34.1805 63.4416 34.3525 63.4416 34.5303V36H62.7649ZM65.2426 32.459H66.0048L66.8935 34.7764C66.914 34.8288 66.9345 34.8903 66.955 34.9609C66.9778 35.0316 66.9961 35.0897 67.0097 35.1353L67.0268 35.2036H67.0405C67.0792 35.0441 67.1191 34.904 67.1601 34.7832L68.0214 32.459H68.7563L67.0883 36.6357C66.9858 36.9046 66.832 37.1108 66.6269 37.2544C66.4241 37.3979 66.1951 37.4697 65.9399 37.4697C65.8237 37.4697 65.7086 37.4515 65.5947 37.415C65.483 37.3786 65.3999 37.3421 65.3452 37.3057L65.2631 37.2544L65.499 36.7349C65.6311 36.8374 65.7667 36.8887 65.9057 36.8887C66.0424 36.8887 66.1666 36.842 66.2783 36.7485C66.3922 36.6551 66.4834 36.5264 66.5517 36.3623L66.726 35.959L65.2426 32.459ZM69.3405 34.2227C69.3405 33.874 69.426 33.5573 69.5969 33.2725C69.7678 32.9876 69.9979 32.7666 70.2873 32.6094C70.579 32.4521 70.898 32.3735 71.2443 32.3735C71.5064 32.3735 71.7536 32.4202 71.986 32.5137C72.2207 32.6071 72.4235 32.7347 72.5944 32.8965C72.7676 33.0583 72.9043 33.2542 73.0046 33.4844C73.1048 33.7145 73.155 33.9606 73.155 34.2227C73.155 34.5736 73.0695 34.8926 72.8986 35.1797C72.7277 35.4645 72.4964 35.6867 72.2048 35.8462C71.9154 36.0057 71.5975 36.0854 71.2512 36.0854C70.9025 36.0854 70.5824 36.0057 70.2907 35.8462C69.999 35.6867 69.7678 35.4645 69.5969 35.1797C69.426 34.8926 69.3405 34.5736 69.3405 34.2227ZM70.0344 34.2227C70.0344 34.5895 70.1517 34.8937 70.3864 35.1353C70.6211 35.3768 70.9094 35.4976 71.2512 35.4976C71.5884 35.4976 71.8755 35.3768 72.1125 35.1353C72.3495 34.8937 72.4679 34.5895 72.4679 34.2227C72.4679 33.8604 72.3495 33.5596 72.1125 33.3203C71.8755 33.0811 71.5884 32.9614 71.2512 32.9614C70.9094 32.9614 70.6211 33.0811 70.3864 33.3203C70.1517 33.5596 70.0344 33.8604 70.0344 34.2227ZM74.2553 36V32.459H74.9115V32.9409L74.891 33.2075H74.9047C74.9411 33.1209 74.9947 33.0332 75.0653 32.9443C75.136 32.8555 75.2248 32.7666 75.3319 32.6777C75.439 32.5889 75.5723 32.516 75.7318 32.459C75.8936 32.402 76.0657 32.3735 76.2479 32.3735C76.6627 32.3735 76.968 32.4863 77.164 32.7119C77.3622 32.9352 77.4613 33.2747 77.4613 33.7305V36H76.7812V33.8877C76.7812 33.751 76.772 33.6336 76.7538 33.5356C76.7379 33.4377 76.7071 33.3454 76.6615 33.2588C76.6159 33.1722 76.5476 33.1073 76.4564 33.064C76.3653 33.0184 76.2514 32.9956 76.1146 32.9956C75.7706 32.9956 75.4869 33.1209 75.2636 33.3716C75.0425 33.62 74.932 33.9287 74.932 34.2979V36H74.2553ZM78.5206 34.2295C78.5206 33.9538 78.5662 33.6997 78.6573 33.4673C78.7485 33.2326 78.8727 33.0366 79.0299 32.8794C79.1894 32.7199 79.3774 32.5957 79.5939 32.5068C79.8126 32.418 80.0473 32.3735 80.298 32.3735C80.6215 32.3735 80.9007 32.4499 81.1354 32.6025C81.3723 32.7529 81.5478 32.9523 81.6617 33.2007C81.7757 33.4491 81.8326 33.7271 81.8326 34.0347C81.8326 34.0916 81.8235 34.1862 81.8053 34.3184H79.2281C79.2441 34.6852 79.3671 34.9735 79.5973 35.1831C79.8297 35.3927 80.1123 35.4976 80.4449 35.4976C80.6318 35.4976 80.8164 35.4611 80.9986 35.3882C81.1832 35.313 81.3461 35.2116 81.4874 35.084L81.7745 35.5796C81.6059 35.7345 81.3963 35.8576 81.1456 35.9487C80.8972 36.0399 80.65 36.0854 80.4039 36.0854C80.0393 36.0854 79.7124 36.0046 79.423 35.8428C79.1359 35.6787 78.9137 35.4554 78.7565 35.1729C78.5992 34.8903 78.5206 34.5758 78.5206 34.2295ZM79.2486 33.8296H81.1456C81.1365 33.5356 81.0511 33.3078 80.8893 33.146C80.7275 32.9819 80.5258 32.8999 80.2843 32.8999C80.0177 32.8999 79.7898 32.9831 79.6007 33.1494C79.4139 33.3135 79.2965 33.5402 79.2486 33.8296Z" fill="#3D3C3C"/>
<path d="M105.412 4H93.3412C92.6035 4 92 4.56038 92 5.24529V6.44262C92 6.81298 92.3002 7.11321 92.6706 7.11321V7.11321C93.0409 7.11321 93.3412 6.81298 93.3412 6.44262V6.17925C93.3412 5.66344 93.7593 5.24529 94.2751 5.24529H101.054C103.461 5.24529 105.412 7.19665 105.412 9.60377V11.6151C105.412 12.9114 104.361 13.9623 103.065 13.9623H101.341C100.997 13.9623 100.718 14.241 100.718 14.5849V14.5849C100.718 14.9288 100.997 15.2075 101.341 15.2075H105.412C106.15 15.2075 106.753 14.6472 106.753 13.9623V5.24529C106.753 4.56038 106.15 4 105.412 4ZM92.9052 13.5381C92.4378 13.3198 92 13.7578 92 14.2736V14.2736C92 14.7894 92.4181 15.2075 92.934 15.2075H93.0059C93.5614 15.2075 94.0309 14.7237 93.7321 14.2553C93.5366 13.9488 93.2494 13.6989 92.9052 13.5381ZM92.6214 10.8868C92.2801 10.845 92 11.1278 92 11.4717V11.4717C92 11.8156 92.281 12.0886 92.6198 12.1475C93.9417 12.3772 94.9912 13.3278 95.2762 14.5426C95.3608 14.9032 95.6532 15.2075 96.0237 15.2075V15.2075C96.3941 15.2075 96.7001 14.9052 96.6398 14.5397C96.3252 12.6354 94.6862 11.1397 92.6214 10.8868ZM92.6225 8.38254C92.2797 8.35593 92 8.63725 92 8.98113V8.98113C92 9.325 92.2795 9.60062 92.6218 9.63316C95.4252 9.89964 97.6609 11.9481 97.993 14.5384C98.04 14.9058 98.3358 15.2075 98.7061 15.2075V15.2075C99.0765 15.2075 99.3804 14.9063 99.3419 14.5379C98.9992 11.2572 96.1645 8.65749 92.6225 8.38254ZM99.5126 9.44577C99.1431 9.25857 98.7061 9.52704 98.7061 9.94123V9.94123C98.7061 10.1505 98.8238 10.3421 99.0105 10.4367L99.9925 10.9342C100.659 11.2721 101.447 11.2721 102.114 10.9342L103.096 10.4367C103.283 10.3421 103.401 10.1505 103.401 9.94123V9.94123C103.401 9.52704 102.964 9.25858 102.594 9.44577L101.611 9.94411C101.26 10.1216 100.846 10.1216 100.496 9.94411L99.5126 9.44577ZM101.806 6.24921C101.333 6.00951 100.774 6.00951 100.3 6.24921V6.24921C99.0824 6.86607 99.0824 8.60563 100.3 9.22249V9.22249C100.774 9.46218 101.333 9.46218 101.806 9.22249V9.22249C103.024 8.60563 103.024 6.86607 101.806 6.24921V6.24921Z" fill="#00A8E8"/>
<path d="M5.88 27C4.936 27 4.112 26.784 3.408 26.352C2.704 25.904 2.152 25.32 1.752 24.6C1.352 23.88 1.152 23.096 1.152 22.248C1.152 21.48 1.328 20.76 1.68 20.088C2.048 19.416 2.576 18.888 3.264 18.504C2.592 18.088 2.08 17.56 1.728 16.92C1.376 16.28 1.2 15.6 1.2 14.88C1.2 14.016 1.4 13.232 1.8 12.528C2.216 11.824 2.776 11.264 3.48 10.848C4.184 10.416 4.96 10.2 5.808 10.2H12.456V12.24H6.072C5.32 12.24 4.704 12.496 4.224 13.008C3.744 13.52 3.504 14.144 3.504 14.88C3.504 15.584 3.752 16.184 4.248 16.68C4.76 17.176 5.384 17.424 6.12 17.424H11.568V19.464H6.288C5.392 19.464 4.688 19.752 4.176 20.328C3.68 20.888 3.432 21.528 3.432 22.248C3.432 22.968 3.68 23.6 4.176 24.144C4.672 24.688 5.344 24.96 6.192 24.96H12.456V27H5.88ZM14.5781 20.9297C14.5781 19.0156 15.0898 17.4766 16.1133 16.3125C17.1367 15.1484 18.457 14.5664 20.0742 14.5664C20.8633 14.5664 21.5938 14.7422 22.2656 15.0938C22.9453 15.4375 23.4727 15.9258 23.8477 16.5586H23.8945C23.8633 16.3164 23.8477 16.043 23.8477 15.7383V10.0547H26.1445V27H23.9414V25.7812C23.9414 25.6406 23.9453 25.5039 23.9531 25.3711C23.9688 25.2305 23.9844 25.125 24 25.0547L24.0117 24.9609H23.9648C23.5977 25.6562 23.0625 26.2188 22.3594 26.6484C21.6641 27.0781 20.8555 27.293 19.9336 27.293C18.3086 27.293 17.0078 26.707 16.0312 25.5352C15.0625 24.3633 14.5781 22.8281 14.5781 20.9297ZM16.957 20.9297C16.957 22.2344 17.2734 23.2852 17.9062 24.082C18.5469 24.8789 19.375 25.2773 20.3906 25.2773C20.8594 25.2773 21.2969 25.1914 21.7031 25.0195C22.1094 24.8477 22.4766 24.5938 22.8047 24.2578C23.1406 23.9141 23.4062 23.457 23.6016 22.8867C23.7969 22.3086 23.8945 21.6484 23.8945 20.9062C23.8945 20.3516 23.8203 19.8203 23.6719 19.3125C23.5312 18.8047 23.3203 18.3477 23.0391 17.9414C22.7656 17.5352 22.4023 17.2109 21.9492 16.9688C21.5039 16.7266 21 16.6055 20.4375 16.6055C19.4453 16.6055 18.6172 16.9922 17.9531 17.7656C17.2891 18.5391 16.957 19.5938 16.957 20.9297ZM29.5898 22.6289V14.8594H31.9219V22.1016C31.9219 22.5625 31.9531 22.9609 32.0156 23.2969C32.0781 23.625 32.1875 23.9375 32.3438 24.2344C32.5 24.5234 32.7344 24.7461 33.0469 24.9023C33.3594 25.0508 33.7461 25.125 34.207 25.125C35.0117 25.125 35.7188 24.9102 36.3281 24.4805C36.9375 24.043 37.3945 23.4805 37.6992 22.793C38.0039 22.1055 38.1562 21.3555 38.1562 20.543V14.8594H40.4648V27H38.2148V25.3242C38.2148 25.1836 38.2227 25.0391 38.2383 24.8906C38.2539 24.7422 38.2695 24.6289 38.2852 24.5508L38.3086 24.4336H38.2617C38.1211 24.7539 37.918 25.0742 37.6523 25.3945C37.3945 25.707 37.0781 26.0117 36.7031 26.3086C36.3359 26.5977 35.8906 26.832 35.3672 27.0117C34.8516 27.1992 34.3125 27.293 33.75 27.293C32.3672 27.293 31.3281 26.9141 30.6328 26.1562C29.9375 25.3906 29.5898 24.2148 29.5898 22.6289ZM43.2656 20.9297C43.2656 19.9844 43.4219 19.1133 43.7344 18.3164C44.0469 17.5117 44.4727 16.8398 45.0117 16.3008C45.5586 15.7539 46.2031 15.3281 46.9453 15.0234C47.6953 14.7188 48.5 14.5664 49.3594 14.5664C50.4688 14.5664 51.4258 14.8281 52.2305 15.3516C53.043 15.8672 53.6445 16.5508 54.0352 17.4023C54.4258 18.2539 54.6211 19.207 54.6211 20.2617C54.6211 20.457 54.5898 20.7812 54.5273 21.2344H45.6914C45.7461 22.4922 46.168 23.4805 46.957 24.1992C47.7539 24.918 48.7227 25.2773 49.8633 25.2773C50.5039 25.2773 51.1367 25.1523 51.7617 24.9023C52.3945 24.6445 52.9531 24.2969 53.4375 23.8594L54.4219 25.5586C53.8438 26.0898 53.125 26.5117 52.2656 26.8242C51.4141 27.1367 50.5664 27.293 49.7227 27.293C48.4727 27.293 47.3516 27.0156 46.3594 26.4609C45.375 25.8984 44.6133 25.1328 44.0742 24.1641C43.5352 23.1953 43.2656 22.1172 43.2656 20.9297ZM45.7617 19.5586H52.2656C52.2344 18.5508 51.9414 17.7695 51.3867 17.2148C50.832 16.6523 50.1406 16.3711 49.3125 16.3711C48.3984 16.3711 47.6172 16.6562 46.9688 17.2266C46.3281 17.7891 45.9258 18.5664 45.7617 19.5586ZM55.793 14.8594H58.2656L61.2188 23.0625L61.6523 24.7148H61.6992C61.832 24.0586 61.9688 23.5078 62.1094 23.0625L65.0508 14.8594H67.5L63.0117 27H60.3516L55.793 14.8594ZM68.6719 20.9297C68.6719 19.9844 68.8281 19.1133 69.1406 18.3164C69.4531 17.5117 69.8789 16.8398 70.418 16.3008C70.9648 15.7539 71.6094 15.3281 72.3516 15.0234C73.1016 14.7188 73.9062 14.5664 74.7656 14.5664C75.875 14.5664 76.832 14.8281 77.6367 15.3516C78.4492 15.8672 79.0508 16.5508 79.4414 17.4023C79.832 18.2539 80.0273 19.207 80.0273 20.2617C80.0273 20.457 79.9961 20.7812 79.9336 21.2344H71.0977C71.1523 22.4922 71.5742 23.4805 72.3633 24.1992C73.1602 24.918 74.1289 25.2773 75.2695 25.2773C75.9102 25.2773 76.543 25.1523 77.168 24.9023C77.8008 24.6445 78.3594 24.2969 78.8438 23.8594L79.8281 25.5586C79.25 26.0898 78.5312 26.5117 77.6719 26.8242C76.8203 27.1367 75.9727 27.293 75.1289 27.293C73.8789 27.293 72.7578 27.0156 71.7656 26.4609C70.7812 25.8984 70.0195 25.1328 69.4805 24.1641C68.9414 23.1953 68.6719 22.1172 68.6719 20.9297ZM71.168 19.5586H77.6719C77.6406 18.5508 77.3477 17.7695 76.793 17.2148C76.2383 16.6523 75.5469 16.3711 74.7188 16.3711C73.8047 16.3711 73.0234 16.6562 72.375 17.2266C71.7344 17.7891 71.332 18.5664 71.168 19.5586ZM82.8281 27V14.8594H85.0781V17.0391C85.0781 17.1875 85.0703 17.3359 85.0547 17.4844C85.0469 17.6328 85.0391 17.7422 85.0312 17.8125L85.0078 17.9297H85.0547C85.3594 17 85.8555 16.2305 86.543 15.6211C87.2305 15.0117 88.0234 14.707 88.9219 14.707C89.0234 14.707 89.2305 14.7266 89.543 14.7656V17.0625C89.418 17.0312 89.1953 17.0156 88.875 17.0156C88.25 17.0156 87.6914 17.1602 87.1992 17.4492C86.707 17.7383 86.3164 18.125 86.0273 18.6094C85.7383 19.0938 85.5195 19.6211 85.3711 20.1914C85.2227 20.7617 85.1484 21.3516 85.1484 21.9609V27H82.8281Z" fill="#00A8E8"/>
<circle cx="93.25" cy="14.25" r="1.25" fill="#00A8E8"/>
</svg>
