<svg width="135" height="54" viewBox="0 0 135 54" fill="none" xmlns="http://www.w3.org/2000/svg">
<path d="M5.0752 37.2459H19.2771V33.6838H9.51843V28.8046H18.5075V25.2426H9.51843V20.3734H19.236V16.8113H5.0752V37.2459ZM28.4945 37.4952C31.0393 37.4952 32.3631 36.0684 32.9685 34.7913H33.1532V37.2459H37.463V16.8113H33.1019V24.4942H32.9685C32.3836 23.247 31.1214 21.7204 28.4842 21.7204C25.0261 21.7204 22.1016 24.3346 22.1016 29.6029C22.1016 34.7316 24.9029 37.4952 28.4945 37.4952ZM29.8798 34.113C27.7351 34.113 26.5653 32.257 26.5653 29.5829C26.5653 26.9288 27.7146 25.1029 29.8798 25.1029C32.0039 25.1029 33.1942 26.849 33.1942 29.5829C33.1942 32.3168 31.9833 34.113 29.8798 34.113ZM51.1646 30.7204C51.175 32.7758 49.7279 33.8534 48.158 33.8534C46.5059 33.8534 45.4387 32.7259 45.4285 30.9199V21.9199H41.0571V31.6783C41.0674 35.2602 43.2222 37.4456 46.393 37.4456C48.7635 37.4456 50.4671 36.2581 51.175 34.462H51.3389V37.2459H55.5361V21.9199H51.1646V30.7204ZM66.2155 37.5453C70.1152 37.5453 72.7421 35.6992 73.3575 32.8556L69.3147 32.5962C68.8736 33.7636 67.7448 34.3725 66.2873 34.3725C64.1016 34.3725 62.7164 32.9654 62.7164 30.6805V30.6705H73.45V29.5031C73.45 24.2947 70.2073 21.7204 66.0413 21.7204C61.403 21.7204 58.3964 24.9233 58.3964 29.6527C58.3964 34.5121 61.3619 37.5453 66.2155 37.5453ZM62.7164 28.0363C62.8089 26.2903 64.1738 24.8933 66.1131 24.8933C68.0116 24.8933 69.3251 26.2104 69.335 28.0363H62.7164ZM90.5458 21.9199H85.9179L82.6544 32.8856H82.4905L79.2171 21.9199H74.5991L80.1097 37.2459H85.0352L90.5458 21.9199ZM99.4296 37.5453C103.329 37.5453 105.956 35.6992 106.572 32.8556L102.528 32.5962C102.087 33.7636 100.958 34.3725 99.5014 34.3725C97.3157 34.3725 95.9304 32.9654 95.9304 30.6805V30.6705H106.664V29.5031C106.664 24.2947 103.421 21.7204 99.2549 21.7204C94.617 21.7204 91.6104 24.9233 91.6104 29.6527C91.6104 34.5121 94.5759 37.5453 99.4296 37.5453ZM95.9304 28.0363C96.0226 26.2903 97.3875 24.8933 99.3267 24.8933C101.225 24.8933 102.539 26.2104 102.549 28.0363H95.9304ZM109.517 37.2459H113.888V28.5752C113.888 26.6893 115.304 25.3922 117.233 25.3922C117.838 25.3922 118.67 25.492 119.08 25.6217V21.8501C118.69 21.7603 118.146 21.7004 117.705 21.7004C115.94 21.7004 114.493 22.6982 113.919 24.594H113.755V21.9199H109.517V37.2459Z" fill="white"/>
<path d="M123.036 7.64148H110.965C110.228 7.64148 109.624 8.20186 109.624 8.88677V10.7547H110.965V8.88677H123.036V17.6037H118.342V18.849H123.036C123.774 18.849 124.377 18.2886 124.377 17.6037V8.88677C124.377 8.20186 123.774 7.64148 123.036 7.64148ZM109.624 16.9811V18.849H111.636C111.636 17.8154 110.737 16.9811 109.624 16.9811ZM109.624 14.4905V15.7358C111.475 15.7358 112.977 17.1305 112.977 18.849H114.318C114.318 16.4394 112.219 14.4905 109.624 14.4905ZM109.624 12V13.2453C112.957 13.2453 115.66 15.7545 115.66 18.849H117.001C117.001 15.0634 113.695 12 109.624 12ZM116.33 12.6786V13.9239L118.677 15.1132L121.025 13.9239V12.6786L118.677 13.8679L116.33 12.6786ZM118.677 9.5094L114.989 11.3773L118.677 13.2453L122.366 11.3773L118.677 9.5094Z" fill="white"/>
</svg>
