<svg width="46" height="51" viewBox="0 0 46 51" fill="none" xmlns="http://www.w3.org/2000/svg">
<rect x="16.5" y="1.5" width="29" height="49" rx="14.5" stroke="#2A2929"/>
<path d="M31 10V23" stroke="#2A2929"/>
<path d="M4.09091 46.6278V45.8608C3.10334 45.896 2.36506 46.8068 2.36506 48.0724C2.36506 49.3253 3.09375 50.3097 4.19318 50.3097C5.07528 50.3097 5.59943 49.6705 5.89347 48.6477L6.12358 47.8423C6.31534 47.152 6.55824 46.5384 7.21023 46.5384C7.92614 46.5384 8.39915 47.2287 8.39915 48.1364C8.39915 48.9162 8.05398 49.6065 7.3125 49.6705V50.4886C8.38636 50.4119 9.11506 49.5426 9.11506 48.1364C9.11506 46.6278 8.28409 45.7713 7.22301 45.7713C5.99574 45.7713 5.59943 46.9347 5.42045 47.6122L5.24148 48.277C5.11364 48.7628 4.85795 49.5426 4.15483 49.5426C3.52841 49.5426 3.06818 48.9673 3.06818 48.098C3.06818 47.3054 3.44531 46.7045 4.09091 46.6278ZM9.10227 42.5761C9.10227 41.4894 8.4375 40.7735 7.56818 40.6457V41.3999C8.10511 41.5406 8.42472 41.988 8.42472 42.5761C8.42472 43.471 7.68324 44.0463 6.54545 44.0463C5.43324 44.0463 4.70455 43.4582 4.70455 42.5761C4.70455 41.9113 5.11364 41.515 5.56108 41.3999V40.6457C4.64063 40.7735 4.02699 41.5534 4.02699 42.5889C4.02699 43.9184 5.07528 44.8005 6.57102 44.8005C8.04119 44.8005 9.10227 43.9568 9.10227 42.5761ZM9 39.5431V38.7888H5.89347C5.22869 38.7888 4.7429 38.2646 4.7429 37.5487C4.7429 37.3474 4.78125 37.1396 4.79403 37.0885H4.02699C4.0206 37.1748 4.0142 37.373 4.0142 37.4848C4.0142 38.0729 4.34659 38.5843 4.83239 38.7632V38.8144H4.09091V39.5431H9ZM9.10227 34.3495C9.10227 33.02 8.09233 32.1251 6.57102 32.1251C5.03693 32.1251 4.02699 33.02 4.02699 34.3495C4.02699 35.6791 5.03693 36.574 6.57102 36.574C8.09233 36.574 9.10227 35.6791 9.10227 34.3495ZM8.42472 34.3495C8.42472 35.3595 7.5554 35.8197 6.57102 35.8197C5.58665 35.8197 4.70455 35.3595 4.70455 34.3495C4.70455 33.3396 5.58665 32.8793 6.57102 32.8793C7.5554 32.8793 8.42472 33.3396 8.42472 34.3495ZM2.45455 30.2195V30.9737H9V30.2195H2.45455ZM2.45455 28.0837V28.838H9V28.0837H2.45455ZM9 22.0488C9 20.0545 7.75994 18.9295 5.71449 18.9295C3.68182 18.9295 2.45455 20.0545 2.45455 21.9593L2.45455 24.0687H9V22.0488ZM8.29688 23.2761H3.15767L3.15767 22.0105C3.15767 20.4764 4.12926 19.6966 5.71449 19.6966C7.3125 19.6966 8.29688 20.4764 8.29688 22.1V23.2761ZM9.10227 15.7079C9.10227 14.3784 8.09233 13.4835 6.57102 13.4835C5.03693 13.4835 4.02699 14.3784 4.02699 15.7079C4.02699 17.0375 5.03693 17.9324 6.57102 17.9324C8.09233 17.9324 9.10227 17.0375 9.10227 15.7079ZM8.42472 15.7079C8.42472 16.7179 7.5554 17.1781 6.57102 17.1781C5.58665 17.1781 4.70455 16.7179 4.70455 15.7079C4.70455 14.698 5.58665 14.2377 6.57102 14.2377C7.5554 14.2377 8.42472 14.698 8.42472 15.7079ZM9 11.3869V10.6454L5.22869 9.57156V9.49485L9 8.42099V7.67951L4.09091 6.18377V6.97638L7.83665 8.03746V8.0886L4.09091 9.12411V9.92951L7.84943 10.9778L7.84943 11.0289L4.09091 12.09V12.8826L9 11.3869ZM6.04688 4.43235C5.19034 4.43235 4.70455 3.90181 4.70455 3.17951C4.70455 2.47958 5.16158 2.05451 5.93182 2.05451H9V1.30025H5.88068C4.62784 1.30025 4.02699 1.96822 4.02699 2.96218C4.02699 3.70366 4.35938 4.16388 4.85795 4.394V4.45792H4.09091V5.18661H9V4.43235H6.04688Z" fill="#2A2929"/>
</svg>
