<svg width="1440" height="726" viewBox="0 0 1440 726" fill="none" xmlns="http://www.w3.org/2000/svg">
<rect y="25" width="1445" height="484" fill="#EEF0F3"/>
<path fill-rule="evenodd" clip-rule="evenodd" d="M0 726L40 721.753C80 716.9 160 708.406 240 682.319C320 656.231 400 612.55 480 590.71C560 568.869 640 568.869 720 573.116C800 577.362 880 585.856 960 581.609C1040 577.362 1120 559.769 1200 555.522C1280 551.275 1308.5 529.5 1392 529.5H1440V490H1400C1360 490 1280 490 1200 490C1120 490 1040 490 960 490C880 490 800 490 720 490C640 490 560 490 480 490C400 490 320 490 240 490C160 490 80 490 40 490H0V726Z" fill="#EEF0F3"/>
<path fill-rule="evenodd" clip-rule="evenodd" d="M0 134L40 131.589C80 128.833 160 124.01 240 109.198C320 94.3856 400 69.5836 480 57.1825C560 44.7815 640 44.7815 720 47.1928C800 49.6041 880 54.4267 960 52.0154C1040 49.6041 1120 39.6144 1200 37.2031C1280 34.7918 1308.5 22.428 1392 22.428H1440V0H1400C1360 0 1280 0 1200 0C1120 0 1040 0 960 0C880 0 800 0 720 0C640 0 560 0 480 0C400 0 320 0 240 0C160 0 80 0 40 0H0V134Z" fill="white"/>
</svg>
